# xmcd CD database file
#
# Track frame offsets:
#	150
#	27857
#	52688
#	81036
#	105331
#	138140
#	156890
#	187364
#	209006
#	226414
#
# Disc length: 3362 seconds
#
# Revision: 0
# Processed by: cddbd v1.5PL3 Copyright (c) Steve Scherf et al.
# Submitted via: CDex 1.51
#
DISCID=7c0d200a
DTITLE=Nguyen Le - Purple Celebrating Jimi Hendrix
DYEAR=1900
DGENRE=Jazz
TTITLE0=1983 - A Merman I should turn to be
TTITLE1=Manic Depression
TTITLE2=Are you experienced
TTITLE3=Purple Haze
TTITLE4=Burning of the midnight lamp
TTITLE5=If 6 was 9
TTITLE6=Voodoo Child (Slight Return)
TTITLE7=South Saturn Delta
TTITLE8=Up from the skies
TTITLE9=Third stone from the sun
EXTD=
EXTT0=
EXTT1=
EXTT2=
EXTT3=
EXTT4=
EXTT5=
EXTT6=
EXTT7=
EXTT8=
EXTT9=
PLAYORDER=
